<svg width="100" height="100" viewBox="0 0 100 100" fill="none" xmlns="http://www.w3.org/2000/svg">
<path d="M100 50C100 77.6142 77.6142 100 50 100C22.3858 100 0 77.6142 0 50C0 22.3858 22.3858 0 50 0C77.6142 0 100 22.3858 100 50Z" fill="#130F30"/>
<path d="M0 50C0 36.7392 5.26784 24.0215 14.6447 14.6447C24.0215 5.26784 36.7392 0 50 0C63.2608 0 75.9785 5.26784 85.3553 14.6447C94.7322 24.0215 100 36.7392 100 50C100 63.2608 94.7322 75.9785 85.3553 85.3553C75.9785 94.7322 63.2608 100 50 100C36.7392 100 24.0215 94.7322 14.6447 85.3553C5.26784 75.9785 0 63.2608 0 50ZM66.1523 77.3242C67.4414 76.1719 67.5391 74.1992 66.3867 72.9101C63.2422 69.4141 57.7539 65.625 50 65.625C42.2461 65.625 36.7578 69.4141 33.6133 72.9101C32.4609 74.1992 32.5586 76.1719 33.8477 77.3242C35.1367 78.4766 37.1094 78.3789 38.2617 77.0898C40.5469 74.5508 44.4336 71.875 50 71.875C55.5664 71.875 59.4531 74.5508 61.7383 77.0898C62.8906 78.3789 64.8633 78.4766 66.1523 77.3242ZM34.4531 53.125C37.9102 53.125 40.7031 50.332 40.7031 46.875C40.7031 46.582 40.6836 46.2891 40.6445 46.0156L42.7734 46.7188C44.4141 47.2656 46.1719 46.3867 46.7188 44.7461C47.2656 43.1055 46.3867 41.3477 44.7461 40.8008L25.9961 34.5508C24.3555 34.0039 22.5977 34.8828 22.0508 36.5234C21.5039 38.1641 22.3828 39.9219 24.0234 40.4687L30.0195 42.4609C28.8867 43.5937 28.2031 45.1562 28.2031 46.875C28.2031 50.332 30.9961 53.125 34.4531 53.125ZM71.9531 46.875C71.9531 45.1367 71.25 43.5547 70.0976 42.4219L75.9961 40.4492C77.6367 39.9023 78.5156 38.125 77.9688 36.5039C77.4219 34.8828 75.6445 33.9844 74.0234 34.5312L55.2734 40.7812C53.6328 41.3281 52.7539 43.1055 53.3008 44.7266C53.8477 46.3477 55.625 47.2461 57.2461 46.6992L59.5312 45.9375C59.4922 46.2305 59.4727 46.543 59.4727 46.8555C59.4727 50.3125 62.2656 53.1055 65.7227 53.1055C69.1797 53.1055 71.9727 50.3125 71.9727 46.8555L71.9531 46.875Z" fill="#F1959A"/>
</svg>
