<svg width="100" height="100" viewBox="0 0 100 100" fill="none" xmlns="http://www.w3.org/2000/svg">
<path d="M100 50C100 77.6142 77.6142 100 50 100C22.3858 100 0 77.6142 0 50C0 22.3858 22.3858 0 50 0C77.6142 0 100 22.3858 100 50Z" fill="#130F30"/>
<path d="M50 100C63.2608 100 75.9785 94.7322 85.3553 85.3553C94.7322 75.9785 100 63.2608 100 50C100 36.7392 94.7322 24.0215 85.3553 14.6447C75.9785 5.26784 63.2608 0 50 0C36.7392 0 24.0215 5.26784 14.6447 14.6447C5.26784 24.0215 0 36.7392 0 50C0 63.2608 5.26784 75.9785 14.6447 85.3553C24.0215 94.7322 36.7392 100 50 100ZM75.8008 61.0937C78.2031 60.3516 80.5469 62.4414 79.5703 64.7461C74.6875 76.2891 63.3203 84.375 50.0586 84.375C36.7969 84.375 25.4102 76.2891 20.5469 64.7461C19.5703 62.4414 21.9141 60.3516 24.3164 61.0937C32.0703 63.4766 40.8203 64.8047 50.0586 64.8047C59.2969 64.8047 68.0469 63.4766 75.8008 61.0937ZM42.5 44.6875L42.4609 44.6484C42.4219 44.6094 42.3828 44.5508 42.3242 44.4727C42.207 44.3164 42.0117 44.082 41.7773 43.8086C41.2891 43.2617 40.6055 42.5195 39.7852 41.7969C38.0664 40.2734 36.1133 39.0625 34.375 39.0625C32.6367 39.0625 30.6836 40.2734 28.9648 41.7969C28.1445 42.5195 27.4609 43.2617 26.9727 43.8086C26.7383 44.082 26.543 44.3164 26.4258 44.4727C26.3672 44.5508 26.3086 44.6094 26.2891 44.6484L26.25 44.6875C25.8398 45.2344 25.1367 45.4492 24.5117 45.2344C23.8867 45.0195 23.4375 44.4336 23.4375 43.75C23.4375 40.2539 24.7461 36.7969 26.6797 34.2187C28.5938 31.6797 31.3477 29.6875 34.375 29.6875C37.4023 29.6875 40.1562 31.6797 42.0703 34.2187C44.0039 36.7969 45.3125 40.2539 45.3125 43.75C45.3125 44.4141 44.8828 45.0195 44.2383 45.2344C43.5938 45.4492 42.8906 45.2344 42.5 44.6875ZM73.75 44.6875L73.7109 44.6484C73.6719 44.6094 73.6328 44.5508 73.5742 44.4727C73.457 44.3164 73.2617 44.082 73.0273 43.8086C72.5391 43.2617 71.8555 42.5195 71.0352 41.7969C69.3164 40.2734 67.3633 39.0625 65.625 39.0625C63.8867 39.0625 61.9336 40.2734 60.2148 41.7969C59.3945 42.5195 58.7109 43.2617 58.2227 43.8086C57.9883 44.082 57.793 44.3164 57.6758 44.4727C57.6172 44.5508 57.5586 44.6094 57.5391 44.6484L57.5 44.6875C57.0898 45.2344 56.3867 45.4492 55.7617 45.2344C55.1367 45.0195 54.6875 44.4336 54.6875 43.75C54.6875 40.2539 55.9961 36.7969 57.9297 34.2187C59.8438 31.6797 62.5977 29.6875 65.625 29.6875C68.6523 29.6875 71.4062 31.6797 73.3203 34.2187C75.2539 36.7969 76.5625 40.2539 76.5625 43.75C76.5625 44.4141 76.1328 45.0195 75.4883 45.2344C74.8438 45.4492 74.1406 45.2344 73.75 44.6875Z" fill="#B8E2A2"/>
</svg>
