<svg width="100" height="100" viewBox="0 0 100 100" fill="none" xmlns="http://www.w3.org/2000/svg">
<path d="M100 50C100 77.6142 77.6142 100 50 100C22.3858 100 0 77.6142 0 50C0 22.3858 22.3858 0 50 0C77.6142 0 100 22.3858 100 50Z" fill="#130F30"/>
<path d="M50 100C63.2608 100 75.9785 94.7322 85.3553 85.3553C94.7322 75.9785 100 63.2608 100 50C100 36.7392 94.7322 24.0215 85.3553 14.6447C75.9785 5.26784 63.2608 0 50 0C36.7392 0 24.0215 5.26784 14.6447 14.6447C5.26784 24.0215 0 36.7392 0 50C0 63.2608 5.26784 75.9785 14.6447 85.3553C24.0215 94.7322 36.7392 100 50 100ZM32.0508 63.5742C35.5469 67.6172 41.5234 71.875 50 71.875C58.4766 71.875 64.4531 67.6172 67.9492 63.5742C69.082 62.2656 71.0547 62.1289 72.3633 63.2617C73.6719 64.3945 73.8086 66.3672 72.6758 67.6758C68.3203 72.6758 60.7617 78.125 50 78.125C39.2383 78.125 31.6797 72.6758 27.3242 67.6758C26.1914 66.3672 26.3281 64.3945 27.6367 63.2617C28.9453 62.1289 30.918 62.2656 32.0508 63.5742ZM28.2031 40.625C28.2031 38.9674 28.8616 37.3777 30.0337 36.2056C31.2058 35.0335 32.7955 34.375 34.4531 34.375C36.1107 34.375 37.7004 35.0335 38.8725 36.2056C40.0446 37.3777 40.7031 38.9674 40.7031 40.625C40.7031 42.2826 40.0446 43.8723 38.8725 45.0444C37.7004 46.2165 36.1107 46.875 34.4531 46.875C32.7955 46.875 31.2058 46.2165 30.0337 45.0444C28.8616 43.8723 28.2031 42.2826 28.2031 40.625ZM65.7031 34.375C67.3607 34.375 68.9504 35.0335 70.1225 36.2056C71.2946 37.3777 71.9531 38.9674 71.9531 40.625C71.9531 42.2826 71.2946 43.8723 70.1225 45.0444C68.9504 46.2165 67.3607 46.875 65.7031 46.875C64.0455 46.875 62.4558 46.2165 61.2837 45.0444C60.1116 43.8723 59.4531 42.2826 59.4531 40.625C59.4531 38.9674 60.1116 37.3777 61.2837 36.2056C62.4558 35.0335 64.0455 34.375 65.7031 34.375Z" fill="#97C1A9"/>
</svg>
