<svg width="100" height="100" viewBox="0 0 100 100" fill="none" xmlns="http://www.w3.org/2000/svg">
<path d="M100 50C100 77.6142 77.6142 100 50 100C22.3858 100 0 77.6142 0 50C0 22.3858 22.3858 0 50 0C77.6142 0 100 22.3858 100 50Z" fill="#130F30"/>
<path d="M0 50C0 63.2608 5.26784 75.9785 14.6447 85.3553C24.0215 94.7321 36.7392 100 50 100C63.2608 100 75.9785 94.7321 85.3553 85.3553C94.7321 75.9785 100 63.2608 100 50C100 36.7392 94.7321 24.0215 85.3553 14.6447C75.9785 5.26784 63.2608 0 50 0C36.7392 0 24.0215 5.26784 14.6447 14.6447C5.26784 24.0215 0 36.7392 0 50ZM46.875 65.625C46.875 63.9062 48.2812 62.5 50 62.5C58.7891 62.5 66.7187 66.5039 72.5976 72.8711C73.7695 74.1406 73.6914 76.1133 72.4219 77.2851C71.1523 78.457 69.1797 78.3789 68.0078 77.1094C63.125 71.8164 56.7969 68.7305 49.9805 68.7305C48.2617 68.7305 46.8555 67.3242 46.8555 65.6055L46.875 65.625ZM31.25 81.25C26.0742 81.25 21.875 77.1484 21.875 72.0703C21.875 68.1641 27.4609 60.2734 30 56.8945C30.625 56.0352 31.875 56.0352 32.5 56.8945C35.0781 60.2734 40.625 68.1641 40.625 72.0703C40.625 77.1484 36.4258 81.25 31.25 81.25ZM71.7969 40.625C71.7969 42.2826 71.1384 43.8723 69.9663 45.0444C68.7942 46.2165 67.2045 46.875 65.5469 46.875C63.8893 46.875 62.2996 46.2165 61.1275 45.0444C59.9554 43.8723 59.2969 42.2826 59.2969 40.625C59.2969 38.9674 59.9554 37.3777 61.1275 36.2056C62.2996 35.0335 63.8893 34.375 65.5469 34.375C67.2045 34.375 68.7942 35.0335 69.9663 36.2056C71.1384 37.3777 71.7969 38.9674 71.7969 40.625ZM34.2969 34.375C35.9545 34.375 37.5442 35.0335 38.7163 36.2056C39.8884 37.3777 40.5469 38.9674 40.5469 40.625C40.5469 42.2826 39.8884 43.8723 38.7163 45.0444C37.5442 46.2165 35.9545 46.875 34.2969 46.875C32.6393 46.875 31.0496 46.2165 29.8775 45.0444C28.7054 43.8723 28.0469 42.2826 28.0469 40.625C28.0469 38.9674 28.7054 37.3777 29.8775 36.2056C31.0496 35.0335 32.6393 34.375 34.2969 34.375Z" fill="#FCBD8F"/>
</svg>
